<mxfile host="Electron" agent="Mozilla/5.0 (Windows NT 10.0; Win64; x64) AppleWebKit/537.36 (KHTML, like Gecko) draw.io/26.0.9 Chrome/128.0.6613.186 Electron/32.2.5 Safari/537.36" version="26.0.9">
  <diagram name="Page-1" id="BYSTjUQ_sq1MIQ7a7slV">
    <mxGraphModel dx="2002" dy="1152" grid="1" gridSize="10" guides="1" tooltips="1" connect="1" arrows="1" fold="1" page="1" pageScale="1" pageWidth="850" pageHeight="1100" math="0" shadow="0">
      <root>
        <mxCell id="0" />
        <mxCell id="1" parent="0" />
        <mxCell id="MRU-Ttux2w6pynKiB-Ux-6" style="edgeStyle=orthogonalEdgeStyle;rounded=0;orthogonalLoop=1;jettySize=auto;html=1;exitX=1;exitY=0.5;exitDx=0;exitDy=0;entryX=0;entryY=0.5;entryDx=0;entryDy=0;" edge="1" parent="1" source="MRU-Ttux2w6pynKiB-Ux-4" target="MRU-Ttux2w6pynKiB-Ux-5">
          <mxGeometry relative="1" as="geometry" />
        </mxCell>
        <mxCell id="MRU-Ttux2w6pynKiB-Ux-8" style="edgeStyle=orthogonalEdgeStyle;rounded=0;orthogonalLoop=1;jettySize=auto;html=1;exitX=1;exitY=0.5;exitDx=0;exitDy=0;entryX=0;entryY=0.5;entryDx=0;entryDy=0;" edge="1" parent="1" source="MRU-Ttux2w6pynKiB-Ux-4" target="MRU-Ttux2w6pynKiB-Ux-7">
          <mxGeometry relative="1" as="geometry" />
        </mxCell>
        <mxCell id="MRU-Ttux2w6pynKiB-Ux-10" style="edgeStyle=orthogonalEdgeStyle;rounded=0;orthogonalLoop=1;jettySize=auto;html=1;exitX=1;exitY=0.5;exitDx=0;exitDy=0;entryX=0;entryY=0.5;entryDx=0;entryDy=0;" edge="1" parent="1" source="MRU-Ttux2w6pynKiB-Ux-4" target="MRU-Ttux2w6pynKiB-Ux-9">
          <mxGeometry relative="1" as="geometry" />
        </mxCell>
        <mxCell id="MRU-Ttux2w6pynKiB-Ux-4" value="image" style="rounded=0;whiteSpace=wrap;html=1;" vertex="1" parent="1">
          <mxGeometry x="30" y="380" width="120" height="60" as="geometry" />
        </mxCell>
        <mxCell id="MRU-Ttux2w6pynKiB-Ux-15" style="edgeStyle=orthogonalEdgeStyle;rounded=0;orthogonalLoop=1;jettySize=auto;html=1;exitX=1;exitY=0.5;exitDx=0;exitDy=0;entryX=0;entryY=0.5;entryDx=0;entryDy=0;" edge="1" parent="1" source="MRU-Ttux2w6pynKiB-Ux-5" target="MRU-Ttux2w6pynKiB-Ux-14">
          <mxGeometry relative="1" as="geometry" />
        </mxCell>
        <mxCell id="MRU-Ttux2w6pynKiB-Ux-5" value="ResNet50&lt;div&gt;Features&amp;nbsp;&lt;/div&gt;" style="rounded=0;whiteSpace=wrap;html=1;" vertex="1" parent="1">
          <mxGeometry x="260" y="220" width="120" height="60" as="geometry" />
        </mxCell>
        <mxCell id="MRU-Ttux2w6pynKiB-Ux-16" style="edgeStyle=orthogonalEdgeStyle;rounded=0;orthogonalLoop=1;jettySize=auto;html=1;exitX=1;exitY=0.5;exitDx=0;exitDy=0;" edge="1" parent="1" source="MRU-Ttux2w6pynKiB-Ux-7">
          <mxGeometry relative="1" as="geometry">
            <mxPoint x="500" y="410" as="targetPoint" />
          </mxGeometry>
        </mxCell>
        <mxCell id="MRU-Ttux2w6pynKiB-Ux-7" value="Color&amp;nbsp;&lt;div&gt;Histogram&lt;/div&gt;" style="rounded=0;whiteSpace=wrap;html=1;" vertex="1" parent="1">
          <mxGeometry x="260" y="380" width="120" height="60" as="geometry" />
        </mxCell>
        <mxCell id="MRU-Ttux2w6pynKiB-Ux-17" style="edgeStyle=orthogonalEdgeStyle;rounded=0;orthogonalLoop=1;jettySize=auto;html=1;exitX=1;exitY=0.5;exitDx=0;exitDy=0;entryX=0;entryY=0.5;entryDx=0;entryDy=0;" edge="1" parent="1" source="MRU-Ttux2w6pynKiB-Ux-9" target="MRU-Ttux2w6pynKiB-Ux-14">
          <mxGeometry relative="1" as="geometry">
            <mxPoint x="450" y="380" as="targetPoint" />
          </mxGeometry>
        </mxCell>
        <mxCell id="MRU-Ttux2w6pynKiB-Ux-9" value="Texture&amp;nbsp;&lt;div&gt;Histogram&lt;/div&gt;" style="rounded=0;whiteSpace=wrap;html=1;" vertex="1" parent="1">
          <mxGeometry x="260" y="530" width="120" height="60" as="geometry" />
        </mxCell>
        <mxCell id="MRU-Ttux2w6pynKiB-Ux-19" style="edgeStyle=orthogonalEdgeStyle;rounded=0;orthogonalLoop=1;jettySize=auto;html=1;exitX=1;exitY=0.5;exitDx=0;exitDy=0;entryX=0;entryY=0.5;entryDx=0;entryDy=0;" edge="1" parent="1" source="MRU-Ttux2w6pynKiB-Ux-14" target="MRU-Ttux2w6pynKiB-Ux-18">
          <mxGeometry relative="1" as="geometry" />
        </mxCell>
        <mxCell id="MRU-Ttux2w6pynKiB-Ux-14" value="Combined&lt;div&gt;Features&lt;/div&gt;&lt;div&gt;Vector&lt;/div&gt;" style="rounded=0;whiteSpace=wrap;html=1;" vertex="1" parent="1">
          <mxGeometry x="500" y="380" width="120" height="60" as="geometry" />
        </mxCell>
        <mxCell id="MRU-Ttux2w6pynKiB-Ux-18" value="PCA&lt;div&gt;Dimensionality&lt;/div&gt;&lt;div&gt;Reduction&lt;/div&gt;" style="rounded=0;whiteSpace=wrap;html=1;" vertex="1" parent="1">
          <mxGeometry x="710" y="380" width="120" height="60" as="geometry" />
        </mxCell>
        <mxCell id="MRU-Ttux2w6pynKiB-Ux-21" value="&lt;h1 style=&quot;text-align: center; margin-top: 0px;&quot;&gt;&lt;font style=&quot;font-size: 24px;&quot;&gt;Image Processing DAG&lt;/font&gt;&lt;/h1&gt;&lt;p style=&quot;text-align: center;&quot;&gt;&lt;font size=&quot;3&quot; style=&quot;&quot;&gt;Given a set of of medical eye fundus images, extract image features via a pretrained model and color/texture histograms. Then combine features into a single vector and apply prinicpal component analysis to reduce the dimensionality.&lt;/font&gt;&lt;/p&gt;&lt;p&gt;&lt;br&gt;&lt;/p&gt;" style="text;html=1;whiteSpace=wrap;overflow=hidden;rounded=0;" vertex="1" parent="1">
          <mxGeometry x="240" y="30" width="370" height="160" as="geometry" />
        </mxCell>
      </root>
    </mxGraphModel>
  </diagram>
</mxfile>
